<svg width="211" height="232" viewBox="0 0 211 232" fill="none" xmlns="http://www.w3.org/2000/svg">
<path d="M40.9158 167.974L40.756 167.697C39.0911 164.742 38.0492 162.228 37.6303 160.153C37.2114 158.078 37.2294 156.191 37.6844 154.494C38.1393 152.796 38.8583 151.058 39.8415 149.281C40.4291 148.204 40.8668 147.079 41.1545 145.909C41.4333 144.723 41.4918 143.51 41.3299 142.271C41.1834 141.023 40.7594 139.791 40.0581 138.577C39.1881 137.07 38.0798 135.967 36.7332 135.268C35.3867 134.569 33.9483 134.262 32.418 134.346C30.8878 134.43 29.4 134.889 27.9545 135.723C26.6936 136.451 25.6298 137.414 24.763 138.612C23.8962 139.809 23.3947 141.196 23.2586 142.771C23.1224 144.346 23.5167 146.077 24.4412 147.962L18.6288 151.318C17.2426 148.633 16.6274 146.005 16.7833 143.434C16.9546 140.854 17.7711 138.486 19.2326 136.33C20.7096 134.166 22.6936 132.364 25.1846 130.926C27.891 129.363 30.5544 128.543 33.1748 128.465C35.8106 128.379 38.216 128.958 40.3908 130.204C42.581 131.441 44.3686 133.259 45.7536 135.657C46.7301 137.349 47.3521 139.03 47.6194 140.7C47.9021 142.362 47.8698 144.01 47.5225 145.646C47.1906 147.273 46.5877 148.892 45.714 150.503C44.8491 152.13 44.2799 153.648 44.0065 155.057C43.7242 156.45 43.767 157.891 44.1348 159.38C44.5026 160.87 45.2215 162.577 46.2916 164.501L46.4514 164.778L40.9158 167.974ZM51.7517 179.924C50.6138 180.581 49.4021 180.737 48.1166 180.393C46.8311 180.048 45.8598 179.307 45.2029 178.169C44.5459 177.031 44.3897 175.82 44.7341 174.534C45.0786 173.249 45.8197 172.278 46.9576 171.621C48.0955 170.964 49.3072 170.807 50.5927 171.152C51.8782 171.496 52.8494 172.237 53.5064 173.375C53.9414 174.129 54.1487 174.932 54.1283 175.784C54.1232 176.628 53.9164 177.424 53.5079 178.172C53.1059 178.896 52.5205 179.48 51.7517 179.924Z" fill="#C9C3C3" fill-opacity="0.57"/>
<path fill-rule="evenodd" clip-rule="evenodd" d="M59.2853 61.0395C59.4198 60.9575 59.5912 61.0073 59.6681 61.1509L64.1573 69.5325C64.2342 69.676 64.1874 69.8589 64.0529 69.9409C63.9183 70.0229 63.7469 69.973 63.6701 69.8295L59.1809 61.4479C59.104 61.3044 59.1507 61.1215 59.2853 61.0395ZM72.3706 61.0031C72.524 61.0264 72.6306 61.1781 72.6087 61.3417L71.4864 69.7233C71.4645 69.887 71.3223 70.0007 71.1689 69.9773C71.0155 69.9539 70.9089 69.8023 70.9309 69.6386L72.0532 61.2571C72.0751 61.0934 72.2172 60.9797 72.3706 61.0031ZM46.6095 61.0782C46.724 60.9668 46.9015 60.9755 47.0059 61.0977L55.7037 71.2753C55.8081 71.3975 55.8 71.5868 55.6854 71.6982C55.5709 71.8096 55.3935 71.8009 55.2891 71.6787L46.5912 61.5011C46.4868 61.3789 46.495 61.1896 46.6095 61.0782ZM82.7122 63.6941C82.8672 63.6941 82.9928 63.8282 82.9928 63.9935V73.2731C82.9928 73.4384 82.8672 73.5724 82.7122 73.5724C82.5572 73.5724 82.4316 73.4384 82.4316 73.2731V63.9935C82.4316 63.8282 82.5572 63.6941 82.7122 63.6941ZM39.3163 69.4581C39.4317 69.3477 39.6091 69.3581 39.7125 69.4812L47.0075 78.1621C47.1109 78.2852 47.1013 78.4744 46.9859 78.5848C46.8705 78.6951 46.6931 78.6848 46.5897 78.5617L39.2947 69.8808C39.1913 69.7577 39.201 69.5685 39.3163 69.4581ZM95.6877 69.4816C95.7909 69.6049 95.7808 69.7942 95.6652 69.9043L87.8091 77.3878C87.6935 77.4979 87.5162 77.4872 87.413 77.3639C87.3098 77.2406 87.3198 77.0513 87.4354 76.9412L95.2915 69.4577C95.4071 69.3476 95.5845 69.3583 95.6877 69.4816ZM32.8558 73.9555C32.9674 73.8408 33.145 73.8444 33.2525 73.9635L40.5475 82.0457C40.6549 82.1648 40.6516 82.3543 40.54 82.469C40.4284 82.5836 40.2507 82.5801 40.1432 82.461L32.8483 74.3787C32.7408 74.2597 32.7442 74.0702 32.8558 73.9555ZM101.162 76.3702C101.263 76.4953 101.25 76.6843 101.133 76.7924L94.9603 82.4799C94.843 82.588 94.6659 82.5741 94.5646 82.449C94.4633 82.3239 94.4763 82.1349 94.5935 82.0268L100.766 76.3393C100.883 76.2312 101.061 76.2451 101.162 76.3702ZM105.99 87.5627C106.031 87.7222 105.943 87.8868 105.793 87.9303L99.6205 89.7264C99.471 89.7699 99.3168 89.6758 99.276 89.5163C99.2352 89.3568 99.3234 89.1923 99.4729 89.1488L105.646 87.3527C105.795 87.3092 105.949 87.4032 105.99 87.5627ZM30.8088 88.1963C30.8315 88.0328 30.9742 87.9199 31.1275 87.9441L38.703 89.1415C38.8563 89.1657 38.9622 89.3179 38.9394 89.4814C38.9167 89.645 38.7741 89.7579 38.6208 89.7337L31.0453 88.5363C30.892 88.5121 30.7861 88.3599 30.8088 88.1963ZM39.78 98.6656C39.8067 98.8284 39.7046 98.9835 39.552 99.012L28.329 101.107C28.1763 101.136 28.031 101.027 28.0042 100.864C27.9775 100.701 28.0796 100.546 28.2323 100.518L39.4553 98.4223C39.6079 98.3938 39.7533 98.5027 39.78 98.6656ZM100.129 99.2019C100.188 99.049 100.352 98.9761 100.495 99.0391L105.265 101.134C105.408 101.197 105.477 101.372 105.418 101.525C105.359 101.678 105.195 101.751 105.051 101.688L100.282 99.5927C100.138 99.5297 100.07 99.3547 100.129 99.2019ZM41.4397 108.465C41.5071 108.614 41.4486 108.793 41.3091 108.865L33.1724 113.056C33.0328 113.128 32.8651 113.065 32.7977 112.916C32.7304 112.768 32.7889 112.589 32.9284 112.517L41.0651 108.326C41.2046 108.254 41.3724 108.316 41.4397 108.465ZM99.3238 108.713C99.418 108.582 99.594 108.557 99.7171 108.657L104.487 112.548C104.61 112.649 104.633 112.837 104.539 112.968C104.445 113.099 104.269 113.124 104.146 113.024L99.3763 109.133C99.2532 109.032 99.2297 108.844 99.3238 108.713ZM93.8482 116.951C93.9391 116.817 94.1145 116.787 94.2401 116.884L98.3069 120.026L98.3084 120.027L100.271 121.523C100.397 121.619 100.426 121.806 100.336 121.941C100.246 122.075 100.071 122.106 99.9448 122.01L97.9807 120.513L97.9793 120.512L93.9109 117.369C93.7854 117.272 93.7574 117.085 93.8482 116.951ZM44.8179 118.073C44.8705 118.228 44.7949 118.4 44.6491 118.456L32.5844 123.096C32.4386 123.152 32.2778 123.071 32.2253 122.916C32.1728 122.76 32.2483 122.589 32.3941 122.533L44.4588 117.893C44.6046 117.837 44.7654 117.917 44.8179 118.073Z" fill="#857D7D"/>
<path d="M80.9677 128.053C88.6077 119.794 95.3381 109.678 95.3381 99.6152C95.3381 84.2402 83.53 71.7764 68.964 71.7764C54.398 71.7764 42.59 84.2402 42.59 99.6152C42.59 109.1 49.6378 119.886 56.882 128.053H80.9677Z" fill="#F4D03F"/>
<path fill-rule="evenodd" clip-rule="evenodd" d="M74.5377 144.561C74.5348 144.361 74.5332 144.146 74.5331 143.915C74.5321 142.093 75.0782 141.64 75.5132 141.498C75.7689 141.415 75.9863 141.439 76.0317 141.356C76.0677 141.29 75.9959 141.158 75.7502 140.851C75.747 140.847 75.7438 140.843 75.7406 140.839C75.5076 140.55 75.1229 140.108 74.533 139.429L63.2591 139.436C62.6185 140.145 62.2104 140.598 61.9722 140.893C61.5498 141.416 61.6612 141.44 61.9565 141.502C62.4237 141.6 63.3512 141.795 63.3525 144.217C63.3528 144.694 63.3492 145.1 63.344 145.443C63.3377 145.859 63.3292 146.181 63.3227 146.423C63.3114 146.84 63.3307 146.907 63.3525 146.911C63.3771 146.916 63.4116 146.809 63.5367 146.464C63.6236 146.224 63.7422 145.922 63.9029 145.59C64.6026 144.145 66.1003 142.124 69.2522 142.122C71.8794 142.12 73.2666 143.479 73.9791 144.729C74.2924 145.278 74.4752 145.807 74.5757 146.189C74.5927 146.254 74.6073 146.315 74.6199 146.371C74.6491 146.673 74.6759 146.792 74.6819 146.776C74.688 146.76 74.6734 146.609 74.6199 146.371C74.6145 146.315 74.609 146.253 74.6036 146.185C74.5755 145.831 74.5482 145.303 74.5377 144.561ZM73.9745 143.692C74 142.621 74.2163 141.912 74.584 141.457C74.7601 141.239 74.9539 141.101 75.1356 141.012C75.121 140.994 75.1058 140.976 75.0902 140.958C74.8925 140.724 74.6306 140.422 74.288 140.028L63.4979 140.034C63.1329 140.438 62.8558 140.747 62.6488 140.986C62.6236 141.015 62.5996 141.043 62.5769 141.069C62.7977 141.168 63.0438 141.33 63.2635 141.608C63.6731 142.127 63.913 142.947 63.9137 144.217C63.9137 144.283 63.9137 144.348 63.9136 144.412C64.8217 143.018 66.4372 141.525 69.2518 141.523C71.0851 141.522 72.3983 142.141 73.3187 142.98C73.5671 143.207 73.7845 143.447 73.9745 143.692Z" fill="#857D7D"/>
<path fill-rule="evenodd" clip-rule="evenodd" d="M65.0774 99.3704C65.218 99.2216 65.4096 99.0805 65.6286 98.9435C66.6533 98.3027 67.4444 97.8495 68.0308 97.5492C68.3238 97.3992 68.5714 97.2844 68.7753 97.2029C68.9694 97.1254 69.1574 97.0641 69.3195 97.0452C69.3938 97.0366 69.5256 97.0282 69.6654 97.0793C69.8417 97.1438 70.0401 97.315 70.0784 97.6081C70.1066 97.8241 70.0276 97.9933 69.9923 98.0615C69.9478 98.1476 69.8921 98.2227 69.8421 98.2829C69.6496 98.5152 69.3108 98.8001 68.8992 99.0957C68.6525 99.2728 68.364 99.4647 68.0402 99.6632C68.4785 99.6267 68.9611 99.5773 69.4779 99.5171C72.5778 99.1555 76.6643 98.4334 78.9664 98.0074C79.3839 97.9301 79.5882 97.416 79.3393 97.036L78.6708 96.0156C78.6692 96.0131 78.6673 96.0108 78.6673 96.0108C78.6673 96.0108 78.6639 96.0103 78.6606 96.0109C78.6572 96.0114 78.6542 96.0129 78.6542 96.0129C78.6542 96.0129 78.653 96.0156 78.6521 96.0185C78.4385 96.7162 77.7922 96.8939 77.3396 96.8498C76.884 96.8055 76.3325 96.5263 76.1124 95.939C75.8692 95.2899 75.6059 95.1629 75.4164 95.1249C75.1582 95.0732 74.8704 95.1455 74.4541 95.2502C74.4198 95.2588 74.3847 95.2677 74.3486 95.2767C74.1398 95.3288 73.8874 95.3873 73.6391 95.3924C73.3813 95.3976 73.0805 95.3469 72.8096 95.1343C72.5406 94.9232 72.3739 94.6096 72.274 94.2439C72.1751 93.8822 72.1302 93.4294 72.1299 92.8752C72.1295 92.0979 71.8919 91.8028 71.6385 91.6697C71.3172 91.501 70.7668 91.4788 69.9651 91.7027C68.389 92.1429 66.2872 93.4058 64.3418 94.9364C62.3969 96.4664 60.698 98.1932 59.8919 99.4961C59.6928 99.8181 59.5611 100.094 59.4904 100.318C59.418 100.547 59.4247 100.673 59.4385 100.727C59.4453 100.754 59.4574 100.794 59.5504 100.842C59.6637 100.902 59.8771 100.959 60.2428 100.959C61.7851 100.958 63.3818 100.535 64.7916 99.9714C64.8087 99.6826 64.9807 99.4728 65.0774 99.3704ZM65.6492 100.253C65.4326 100.349 65.2102 100.444 64.9831 100.534C63.5218 101.118 61.8611 101.557 60.2431 101.558C53.6914 101.562 72.6871 85.5064 72.691 92.8749C72.6922 95.0843 73.4533 94.8899 74.3468 94.6618C75.1556 94.4553 76.0729 94.2211 76.6335 95.7167C76.87 96.3478 77.9209 96.4788 78.1186 95.8327C78.265 95.3544 78.8606 95.2602 79.1307 95.6726L79.7992 96.693C80.2805 97.4277 79.8901 98.4441 79.0623 98.5973C75.9927 99.1653 69.7254 100.265 66.8519 100.331C66.3216 100.343 65.9069 100.321 65.6492 100.253Z" fill="#857D7D"/>
<path fill-rule="evenodd" clip-rule="evenodd" d="M57.1799 128.951H80.7482C80.9031 128.951 81.0288 129.085 81.0288 129.25V131.345C81.0288 131.511 80.9031 131.645 80.7482 131.645H79.6297C79.6359 131.831 79.6466 132.025 79.6591 132.223C79.665 132.315 79.6713 132.408 79.6776 132.502C79.7211 133.147 79.7665 133.822 79.6843 134.35C79.6364 134.659 79.5401 134.959 79.3431 135.184C79.1371 135.419 78.853 135.536 78.5036 135.536C72.282 135.536 66.9175 134.03 63.1094 132.524C62.3583 132.227 61.6676 131.93 61.0425 131.645H57.1799C57.0249 131.645 56.8993 131.511 56.8993 131.345V129.25C56.8993 129.085 57.0249 128.951 57.1799 128.951ZM62.5223 131.645C62.775 131.75 63.0357 131.857 63.3043 131.963C67.0682 133.451 72.3655 134.938 78.5036 134.938C78.7282 134.938 78.8524 134.867 78.933 134.775C79.0226 134.673 79.0913 134.506 79.1307 134.252C79.2011 133.8 79.1617 133.207 79.1179 132.548C79.1117 132.455 79.1054 132.36 79.0993 132.264C79.0864 132.061 79.0745 131.853 79.0679 131.645H62.5223ZM79.0677 131.046H61.1579C60.2568 130.631 59.4987 130.243 58.9009 129.919C58.6523 129.784 58.4315 129.66 58.2397 129.549H79.465C79.3495 129.712 79.2664 129.898 79.2072 130.094C79.1205 130.381 79.0808 130.707 79.0677 131.046ZM79.6293 131.046H80.4676V129.573C80.2938 129.606 80.1644 129.668 80.066 129.747C79.9199 129.864 79.8136 130.038 79.7413 130.277C79.6744 130.499 79.6412 130.759 79.6293 131.046ZM59.788 131.046H57.4605V129.774C57.7331 129.939 58.1319 130.173 58.6463 130.452C58.9793 130.633 59.3609 130.833 59.788 131.046Z" fill="#857D7D"/>
<path fill-rule="evenodd" clip-rule="evenodd" d="M58.0216 131.645C58.0216 131.479 58.1472 131.345 58.3022 131.345H78.5036C78.6585 131.345 78.7842 131.479 78.7842 131.645V134.04C78.7842 134.122 78.7524 134.2 78.6964 134.257C78.6404 134.314 78.565 134.343 78.488 134.338L61.0781 133.307C61.1001 133.353 61.1109 133.407 61.1072 133.462C61.0968 133.619 60.9746 133.74 60.8274 133.74H60.2662C60.1918 133.74 60.1204 133.709 60.0678 133.653L60.0404 133.623L59.9445 133.609L59.3423 134.251C59.2812 134.316 59.1954 134.348 59.1096 134.337C59.0239 134.325 58.9478 134.273 58.9033 134.194C58.8387 134.079 58.7594 133.955 58.6792 133.853C58.6494 133.815 58.6223 133.784 58.5983 133.759C58.5889 133.828 58.5828 133.92 58.5828 134.04C58.5828 134.205 58.4571 134.339 58.3022 134.339C58.1472 134.339 58.0216 134.205 58.0216 134.04V131.645ZM58.5828 132.559L78.223 133.723V131.944H58.5828V132.559Z" fill="#857D7D"/>
<path fill-rule="evenodd" clip-rule="evenodd" d="M59.7051 136.434V133.441H60.2662V136.135H77.6619V135.312H78.223V136.434C78.223 136.6 78.0974 136.734 77.9424 136.734H59.9856C59.8307 136.734 59.7051 136.6 59.7051 136.434Z" fill="#857D7D"/>
<path fill-rule="evenodd" clip-rule="evenodd" d="M61.1079 136.135C61.2629 136.135 61.3885 136.269 61.3885 136.434V139.128H77.6619V136.434C77.6619 136.269 77.7875 136.135 77.9424 136.135C78.0974 136.135 78.223 136.269 78.223 136.434V139.428C78.223 139.593 78.0974 139.727 77.9424 139.727H61.1079C60.953 139.727 60.8274 139.593 60.8274 139.428V136.434C60.8274 136.269 60.953 136.135 61.1079 136.135Z" fill="#857D7D"/>
<path fill-rule="evenodd" clip-rule="evenodd" d="M69.2446 151.401C72.3054 151.401 74.5755 149.279 74.5755 146.911C74.5755 144.543 72.3054 142.421 69.2446 142.421C66.1838 142.421 63.9137 144.543 63.9137 146.911C63.9137 149.279 66.1838 151.401 69.2446 151.401ZM69.2446 152C72.4987 152 75.1367 149.722 75.1367 146.911C75.1367 144.101 72.4987 141.822 69.2446 141.822C65.9905 141.822 63.3525 144.101 63.3525 146.911C63.3525 149.722 65.9905 152 69.2446 152Z" fill="#857D7D"/>
<path d="M82.0674 176.118C81.41 177.332 81.8612 178.85 83.0753 179.507C84.2895 180.165 85.8067 179.713 86.4642 178.499L82.0674 176.118ZM112.05 126L87.4533 141.111L112.838 154.857L112.05 126ZM86.4642 178.499L103.534 146.976L99.1377 144.595L82.0674 176.118L86.4642 178.499Z" fill="#22EECC" fill-opacity="0.780392"/>
</svg>
